<?xml version="1.0" encoding="utf-8"?>
<!-- Generator: Adobe Illustrator 24.2.1, SVG Export Plug-In . SVG Version: 6.00 Build 0)  -->
<svg version="1.1" id="Layer_1" xmlns="http://www.w3.org/2000/svg" xmlns:xlink="http://www.w3.org/1999/xlink" x="0px" y="0px"
	 viewBox="0 0 206.1 192.6" style="enable-background:new 0 0 206.1 192.6;" xml:space="preserve">
<style type="text/css">
	.st0{fill:#E70000;}
	.st1{fill:#C7DBF2;}
	.st2{fill:#E6F2FF;}
	.st3{fill:#FFFFFF;}
</style>
<g>
	<g>
		<rect x="92.9" y="30.6" class="st0" width="28.2" height="28.2"/>
		<rect x="103.3" y="20.2" class="st0" width="28.1" height="28.2"/>
		<path class="st0" d="M121.1,79.4H72.3V40.9h38.4v10.3h10.3V79.4z M90.1,61.6h2.8v-2.8h-2.8V61.6z"/>
		<rect x="113.6" y="51.2" class="st0" width="28.1" height="28.2"/>
		<rect x="123.9" y="40.9" class="st0" width="28.2" height="28.2"/>
		<path class="st0" d="M121.1,100.1H72.3V61.6h48.8V100.1z M90.1,82.3h13.1v-2.8H90.1V82.3z"/>
		<rect x="103.3" y="61.6" class="st0" width="28.1" height="38.6"/>
		<rect x="103.3" y="82.3" class="st0" width="38.4" height="28.1"/>
		<polygon class="st0" points="162.4,110.4 134.3,110.4 134.3,100.1 124.1,100.1 124.1,72 152.2,72 152.2,82.3 162.4,82.3 		"/>
		<rect x="72.3" y="82.3" class="st0" width="48.8" height="28.1"/>
		<rect x="103.3" y="92.6" class="st0" width="28.1" height="28.1"/>
		<rect x="113.6" y="103" class="st0" width="28.1" height="28.1"/>
		<rect x="124.1" y="113.4" class="st0" width="28.1" height="28.1"/>
		<path class="st0" d="M110.7,141.4H72.3V92.6h48.8v38.6h-10.3V141.4z M90.1,123.6h2.8v-10.3h10.3v-2.9H90.1V123.6z"/>
		<rect x="82.6" y="123.7" class="st0" width="28.1" height="28.2"/>
		<rect x="92.9" y="134" class="st0" width="28.2" height="28.1"/>
		<path class="st0" d="M90.1,79.4H41.3V51.2h10.3V30.6h28.2v10.3h10.3V79.4z M69.5,61.6h2.7v-2.8h-2.7V61.6z"/>
		<rect x="41.2" y="20.2" class="st0" width="28.2" height="28.2"/>
		<path class="st0" d="M90.1,100.1H41.3V61.6h48.8V100.1z M59.2,82.3h13v-2.8h-13V82.3z"/>
		<polygon class="st0" points="59.1,100.1 30.9,100.1 30.9,89.7 20.6,89.7 20.6,61.6 59.1,61.6 		"/>
		<rect x="10.3" y="51.2" class="st0" width="28.2" height="28.2"/>
		<rect x="41.3" y="82.3" class="st0" width="48.8" height="28.1"/>
		<path class="st0" d="M90.1,151.7H61.9v-10.3H51.6v-10.3H41.3V92.6h48.8V151.7z M69.5,123.6h2.7v-13.2h-13v2.9h10.3V123.6z"/>
		<rect x="30.9" y="82.3" class="st0" width="28.2" height="28.1"/>
		<polygon class="st0" points="38.6,131 0,131 0,102.9 20.7,102.9 20.7,92.6 59.1,92.6 59.1,120.8 38.6,120.8 		"/>
		<rect x="31" y="113.3" class="st0" width="28.2" height="28.1"/>
		<rect x="20.6" y="123.6" class="st0" width="28.2" height="28.1"/>
		<rect x="51.6" y="134" class="st0" width="28.2" height="38.4"/>
	</g>
	<g>
		<rect x="91.5" y="49.8" class="st1" width="10.3" height="10.3"/>
		<rect x="101.8" y="39.5" class="st1" width="10.3" height="10.3"/>
		<rect x="112.2" y="29.1" class="st1" width="10.3" height="10.3"/>
		<rect x="81.2" y="49.8" class="st1" width="10.3" height="10.3"/>
		<rect x="101.8" y="60.1" class="st1" width="10.3" height="10.3"/>
		<rect x="91.5" y="60.1" class="st2" width="10.3" height="10.3"/>
		<rect x="81.2" y="60.1" class="st2" width="10.3" height="10.3"/>
		<rect x="112.2" y="70.5" class="st1" width="10.3" height="10.3"/>
		<rect x="122.5" y="60.1" class="st1" width="10.3" height="10.3"/>
		<rect x="132.8" y="49.8" class="st1" width="10.3" height="10.3"/>
		<rect x="101.8" y="70.5" class="st2" width="10.3" height="10.3"/>
		<rect x="91.5" y="70.5" class="st2" width="10.3" height="10.3"/>
		<rect x="81.2" y="70.5" class="st1" width="10.3" height="10.3"/>
		<rect x="112.2" y="80.8" class="st1" width="10.3" height="10.3"/>
		<rect x="101.8" y="80.8" class="st2" width="10.3" height="10.3"/>
		<rect x="91.5" y="80.8" class="st2" width="10.3" height="10.3"/>
		<rect x="81.2" y="80.8" class="st2" width="10.3" height="10.3"/>
		<rect x="101.8" y="91.2" class="st3" width="10.3" height="10.3"/>
		<rect x="112.2" y="91.2" class="st1" width="10.3" height="10.3"/>
		<rect x="122.5" y="91.2" class="st1" width="10.3" height="10.3"/>
		<rect x="133" y="80.9" class="st1" width="10.3" height="10.3"/>
		<rect x="143.2" y="91.2" class="st1" width="10.3" height="10.3"/>
		<rect x="91.5" y="91.2" class="st2" width="10.3" height="10.3"/>
		<rect x="81.2" y="91.2" class="st2" width="10.3" height="10.3"/>
		<rect x="112.2" y="101.5" class="st1" width="10.3" height="10.3"/>
		<rect x="122.5" y="111.9" class="st1" width="10.3" height="10.3"/>
		<rect x="133" y="122.3" class="st1" width="10.3" height="10.3"/>
		<rect x="101.8" y="101.5" class="st2" width="10.3" height="10.3"/>
		<rect x="91.5" y="101.5" class="st1" width="10.3" height="10.3"/>
		<rect x="81.2" y="101.5" class="st2" width="10.3" height="10.3"/>
		<rect x="101.8" y="111.9" class="st1" width="10.3" height="10.3"/>
		<rect x="91.5" y="111.9" class="st2" width="10.3" height="10.3"/>
		<rect x="81.2" y="111.9" class="st2" width="10.3" height="10.3"/>
		<rect x="91.5" y="122.2" class="st1" width="10.3" height="10.3"/>
		<rect x="91.5" y="132.6" class="st1" width="10.3" height="10.3"/>
		<rect x="101.8" y="142.9" class="st1" width="10.3" height="10.3"/>
		<rect x="81.2" y="122.2" class="st1" width="10.3" height="10.3"/>
		<rect x="70.8" y="49.8" class="st1" width="10.3" height="10.3"/>
		<rect x="60.5" y="39.5" class="st1" width="10.3" height="10.3"/>
		<rect x="50.1" y="29.1" class="st1" width="10.3" height="10.3"/>
		<rect x="60.5" y="49.8" class="st1" width="10.3" height="10.3"/>
		<rect x="70.8" y="60.1" class="st2" width="10.3" height="10.3"/>
		<rect x="60.5" y="60.1" class="st2" width="10.3" height="10.3"/>
		<rect x="50.2" y="60.1" class="st1" width="10.3" height="10.3"/>
		<rect x="70.8" y="70.5" class="st3" width="10.3" height="10.3"/>
		<rect x="60.5" y="70.5" class="st2" width="10.3" height="10.3"/>
		<rect x="50.2" y="70.5" class="st3" width="10.3" height="10.3"/>
		<rect x="39.8" y="70.5" class="st1" width="10.3" height="10.3"/>
		<rect x="29.5" y="70.5" class="st1" width="10.3" height="10.3"/>
		<rect x="19.2" y="60.1" class="st1" width="10.3" height="10.3"/>
		<rect x="70.8" y="80.8" class="st2" width="10.3" height="10.3"/>
		<rect x="60.5" y="80.8" class="st2" width="10.3" height="10.3"/>
		<rect x="50.2" y="80.8" class="st2" width="10.3" height="10.3"/>
		<rect x="70.8" y="91.2" class="st2" width="10.3" height="10.3"/>
		<rect x="60.5" y="91.2" class="st1" width="10.3" height="10.3"/>
		<rect x="50.2" y="91.2" class="st2" width="10.3" height="10.3"/>
		<rect x="70.8" y="101.5" class="st2" width="10.3" height="10.3"/>
		<rect x="60.5" y="101.5" class="st2" width="10.3" height="10.3"/>
		<rect x="50.2" y="101.5" class="st2" width="10.3" height="10.3"/>
		<rect x="39.8" y="80.8" class="st1" width="10.3" height="10.3"/>
		<rect x="39.8" y="91.2" class="st1" width="10.3" height="10.3"/>
		<rect x="39.8" y="101.5" class="st1" width="10.3" height="10.3"/>
		<rect x="29.6" y="101.5" class="st1" width="10.3" height="10.3"/>
		<rect x="19.2" y="111.8" class="st1" width="10.3" height="10.3"/>
		<rect x="8.9" y="111.8" class="st1" width="10.3" height="10.3"/>
		<rect x="70.8" y="111.9" class="st3" width="10.3" height="10.3"/>
		<rect x="60.5" y="111.9" class="st2" width="10.3" height="10.3"/>
		<rect x="50.2" y="111.9" class="st1" width="10.3" height="10.3"/>
		<rect x="39.9" y="122.2" class="st1" width="10.3" height="10.3"/>
		<rect x="29.5" y="132.5" class="st1" width="10.3" height="10.3"/>
		<rect x="70.8" y="122.2" class="st1" width="10.3" height="10.3"/>
		<rect x="70.8" y="132.5" class="st1" width="10.3" height="10.3"/>
		<rect x="60.5" y="142.9" class="st1" width="10.3" height="10.3"/>
		<rect x="60.5" y="153.2" class="st1" width="10.3" height="10.3"/>
		<rect x="60.5" y="122.2" class="st1" width="10.3" height="10.3"/>
	</g>
</g>
</svg>
