<?xml version="1.0" encoding="utf-8"?>
<!-- Generator: Adobe Illustrator 24.2.1, SVG Export Plug-In . SVG Version: 6.00 Build 0)  -->
<svg version="1.1" id="레이어_1" xmlns="http://www.w3.org/2000/svg" xmlns:xlink="http://www.w3.org/1999/xlink" x="0px"
	 y="0px" viewBox="0 0 297.6 299.2" style="enable-background:new 0 0 297.6 299.2;" xml:space="preserve">
<style type="text/css">
	.st0{fill:none;stroke:#E70000;stroke-width:22.6772;stroke-miterlimit:10;}
	.st1{fill:#692800;}
	.st2{fill:#A2A625;}
	.st3{fill:#753F19;}
	.st4{fill:#F9CB9A;}
	.st5{fill:#FCE3C9;}
	.st6{fill:#0B0A13;}
	.st7{fill:#6D7019;}
	.st8{fill:#818C22;}
	.st9{fill:#1A1921;}
	.st10{fill:#27262E;}
	.st11{fill:#B1C02E;}
	.st12{fill:#D2DDC2;}
	.st13{fill:#FFFFFF;}
	.st14{fill:#FF6200;}
</style>
<g>
	<polygon class="st0" points="260.4,169.3 260.4,156.2 260.4,143 247.3,143 247.3,129.9 234.2,129.9 221,129.9 221,129.9 
		207.9,129.9 207.9,116.8 221,116.8 221,116.8 234.2,116.8 234.2,103.6 234.2,103.6 234.2,90.5 234.2,77.4 234.2,64.2 234.2,51.1 
		234.2,37.9 221,37.9 221,24.8 207.9,24.8 207.9,11.7 194.8,11.7 181.6,11.7 168.5,11.7 155.4,11.7 142.2,11.7 142.2,24.8 
		129.1,24.8 129.1,37.9 116,37.9 116,51.1 116,64.2 116,77.4 116,90.5 116,103.6 116,103.6 116,116.8 129.1,116.8 129.1,129.9 
		129.1,143 129.1,156.2 116,156.2 116,169.3 116,169.3 116,182.4 129.1,182.4 129.1,169.3 142.2,169.3 142.2,182.4 142.2,195.6 
		142.2,208.7 129.1,208.7 129.1,195.6 116,195.6 116,182.4 102.8,182.4 102.8,195.6 116,195.6 116,208.7 102.8,208.7 102.8,208.7 
		89.7,208.7 89.7,221.8 76.6,221.8 76.6,208.7 76.6,208.7 76.6,195.6 89.7,195.6 89.7,182.4 89.7,169.3 102.8,169.3 102.8,156.2 
		89.7,156.2 89.7,169.3 76.6,169.3 76.6,182.4 76.6,195.6 63.5,195.6 63.5,208.7 63.5,208.7 63.5,221.8 63.4,221.8 50.3,221.8 
		50.3,208.7 37.2,208.7 37.2,195.6 24,195.6 24,208.7 10.9,208.7 10.9,221.8 24,221.8 24,208.7 37.1,208.7 37.1,221.8 50.3,221.8 
		50.3,235 63.4,235 63.4,235 76.6,235 76.6,235 81.4,235 81.4,235 76.6,235 76.6,235 63.4,235 63.4,248.1 63.4,261.2 63.4,274.4 
		76.6,274.4 76.6,287.5 89.7,287.5 89.7,274.4 102.8,274.4 102.8,261.2 116,261.2 116,248.1 102.8,248.1 102.8,248.1 102.8,245.7 
		102.8,235 89.7,235 84.8,235 84.8,235 89.7,235 102.8,235 102.8,221.8 116,221.8 116,208.7 129.1,208.7 129.1,221.8 129.1,221.8 
		129.1,235 142.2,235 142.2,235 155.4,235 168.5,235 181.6,235 194.8,235 207.9,235 221,235 221,235 234.2,235 247.3,235 
		247.3,221.8 234.2,221.8 234.2,208.7 234.2,195.6 221,195.6 221,182.4 234.2,182.4 234.2,169.3 234.2,169.3 234.2,156.2 
		247.3,156.2 247.3,169.3 260.4,169.3 260.4,182.4 273.6,182.4 273.6,169.3 	"/>
	<rect x="273.6" y="182.4" class="st0" width="13.1" height="13.1"/>
	<polygon class="st0" points="221,235 207.9,235 194.8,235 194.8,248.1 207.9,248.1 207.9,261.2 221,261.2 221,274.4 221,274.4 
		221,287.5 234.2,287.5 234.2,274.4 234.2,274.4 234.2,261.2 234.2,248.1 221,248.1 	"/>
	<polygon class="st0" points="142.2,235 142.2,248.1 155.4,248.1 155.4,261.2 155.4,274.4 155.4,274.4 155.4,287.5 168.5,287.5 
		168.5,274.4 168.5,274.4 168.5,261.2 168.5,248.1 168.5,235 155.4,235 	"/>
	<rect x="50.3" y="182.4" class="st0" width="13.1" height="13.1"/>
</g>
<g id="BACKGROUND">
</g>
<g id="OBJECTS">
	<g>
		<g>
			<rect x="194.8" y="11.7" class="st1" width="13.1" height="13.1"/>
			<rect x="181.6" y="11.7" class="st1" width="13.1" height="13.1"/>
			<rect x="207.9" y="24.8" class="st2" width="13.1" height="13.1"/>
			<rect x="194.8" y="24.8" class="st3" width="13.1" height="13.1"/>
			<rect x="181.6" y="24.8" class="st3" width="13.1" height="13.1"/>
			<rect x="221" y="37.9" class="st1" width="13.1" height="13.1"/>
			<rect x="207.9" y="37.9" class="st3" width="13.1" height="13.1"/>
			<rect x="194.8" y="37.9" class="st3" width="13.1" height="13.1"/>
			<rect x="181.6" y="37.9" class="st3" width="13.1" height="13.1"/>
			<rect x="221" y="51.1" class="st1" width="13.1" height="13.1"/>
			<rect x="207.9" y="51.1" class="st3" width="13.1" height="13.1"/>
			<rect x="194.8" y="51.1" class="st4" width="13.1" height="13.1"/>
			<rect x="181.6" y="51.1" class="st3" width="13.1" height="13.1"/>
			<rect x="221" y="64.2" class="st3" width="13.1" height="13.1"/>
			<rect x="207.9" y="64.2" class="st1" width="13.1" height="13.1"/>
			<rect x="194.8" y="64.2" class="st5" width="13.1" height="13.1"/>
			<rect x="181.6" y="64.2" class="st1" width="13.1" height="13.1"/>
			<rect x="221" y="77.4" class="st1" width="13.1" height="13.1"/>
			<rect x="207.9" y="77.4" class="st1" width="13.1" height="13.1"/>
			<rect x="194.8" y="77.4" class="st1" width="13.1" height="13.1"/>
			<rect x="181.6" y="77.4" class="st5" width="13.1" height="13.1"/>
			<rect x="221" y="90.5" class="st1" width="13.1" height="13.1"/>
			<rect x="207.9" y="90.5" class="st1" width="13.1" height="13.1"/>
			<rect x="194.8" y="90.5" class="st4" width="13.1" height="13.1"/>
			<rect x="181.6" y="90.5" class="st5" width="13.1" height="13.1"/>
			<rect x="168.5" y="11.7" class="st3" width="13.1" height="13.1"/>
			<rect x="155.4" y="11.7" class="st3" width="13.1" height="13.1"/>
			<rect x="142.2" y="11.7" class="st3" width="13.1" height="13.1"/>
			<rect x="168.5" y="24.8" class="st3" width="13.1" height="13.1"/>
			<rect x="155.4" y="24.8" class="st3" width="13.1" height="13.1"/>
			<rect x="142.2" y="24.8" class="st3" width="13.1" height="13.1"/>
			<rect x="129.1" y="24.8" class="st3" width="13.1" height="13.1"/>
			<rect x="168.5" y="37.9" class="st3" width="13.1" height="13.1"/>
			<rect x="155.4" y="37.9" class="st3" width="13.1" height="13.1"/>
			<rect x="142.2" y="37.9" class="st3" width="13.1" height="13.1"/>
			<rect x="129.1" y="37.9" class="st3" width="13.1" height="13.1"/>
			<rect x="116" y="37.9" class="st1" width="13.1" height="13.1"/>
			<rect x="168.5" y="51.1" class="st4" width="13.1" height="13.1"/>
			<rect x="155.4" y="51.1" class="st3" width="13.1" height="13.1"/>
			<rect x="142.2" y="51.1" class="st4" width="13.1" height="13.1"/>
			<rect x="129.1" y="51.1" class="st3" width="13.1" height="13.1"/>
			<rect x="116" y="51.1" class="st1" width="13.1" height="13.1"/>
			<rect x="168.5" y="64.2" class="st5" width="13.1" height="13.1"/>
			<rect x="155.4" y="64.2" class="st3" width="13.1" height="13.1"/>
			<rect x="142.2" y="64.2" class="st5" width="13.1" height="13.1"/>
			<rect x="129.1" y="64.2" class="st5" width="13.1" height="13.1"/>
			<rect x="116" y="64.2" class="st3" width="13.1" height="13.1"/>
			<rect x="168.5" y="77.4" class="st5" width="13.1" height="13.1"/>
			<rect x="155.4" y="77.4" class="st5" width="13.1" height="13.1"/>
			<rect x="142.2" y="77.4" class="st5" width="13.1" height="13.1"/>
			<rect x="129.1" y="77.4" class="st5" width="13.1" height="13.1"/>
			<rect x="116" y="77.4" class="st3" width="13.1" height="13.1"/>
			<rect x="168.5" y="90.5" class="st6" width="13.1" height="13.1"/>
			<rect x="155.4" y="90.5" class="st5" width="13.1" height="13.1"/>
			<rect x="142.2" y="90.5" class="st5" width="13.1" height="13.1"/>
			<rect x="129.1" y="90.5" class="st6" width="13.1" height="13.1"/>
			<rect x="116" y="90.5" class="st3" width="13.1" height="13.1"/>
			<rect x="221" y="103.6" class="st1" width="13.1" height="13.1"/>
			<rect x="207.9" y="103.6" class="st1" width="13.1" height="13.1"/>
			<rect x="194.8" y="103.6" class="st4" width="13.1" height="13.1"/>
			<rect x="181.6" y="103.6" class="st5" width="13.1" height="13.1"/>
			<rect x="194.8" y="116.8" class="st4" width="13.1" height="13.1"/>
			<rect x="181.6" y="116.8" class="st5" width="13.1" height="13.1"/>
			<rect x="234.2" y="129.9" class="st4" width="13.1" height="13.1"/>
			<rect x="221" y="129.9" class="st7" width="13.1" height="13.1"/>
			<rect x="207.9" y="129.9" class="st7" width="13.1" height="13.1"/>
			<rect x="194.8" y="129.9" class="st7" width="13.1" height="13.1"/>
			<rect x="181.6" y="129.9" class="st8" width="13.1" height="13.1"/>
			<rect x="247.3" y="143" class="st5" width="13.1" height="13.1"/>
			<rect x="234.2" y="143" class="st4" width="13.1" height="13.1"/>
			<rect x="221" y="143" class="st7" width="13.1" height="13.1"/>
			<rect x="207.9" y="143" class="st8" width="13.1" height="13.1"/>
			<rect x="194.8" y="143" class="st8" width="13.1" height="13.1"/>
			<rect x="181.6" y="143" class="st8" width="13.1" height="13.1"/>
			<rect x="247.3" y="156.2" class="st5" width="13.1" height="13.1"/>
			<rect x="221" y="156.2" class="st7" width="13.1" height="13.1"/>
			<rect x="207.9" y="156.2" class="st7" width="13.1" height="13.1"/>
			<rect x="194.8" y="156.2" class="st8" width="13.1" height="13.1"/>
			<rect x="181.6" y="156.2" class="st8" width="13.1" height="13.1"/>
			<rect x="260.4" y="169.3" class="st5" width="13.1" height="13.1"/>
			<rect x="221" y="169.3" class="st9" width="13.1" height="13.1"/>
			<rect x="207.9" y="169.3" class="st9" width="13.1" height="13.1"/>
			<rect x="194.8" y="169.3" class="st9" width="13.1" height="13.1"/>
			<rect x="181.6" y="169.3" class="st8" width="13.1" height="13.1"/>
			<rect x="273.6" y="182.4" class="st5" width="13.1" height="13.1"/>
			<rect x="207.9" y="182.4" class="st7" width="13.1" height="13.1"/>
			<rect x="194.8" y="182.4" class="st8" width="13.1" height="13.1"/>
			<rect x="181.6" y="182.4" class="st10" width="13.1" height="13.1"/>
			<rect x="221" y="195.6" class="st7" width="13.1" height="13.1"/>
			<rect x="207.9" y="195.6" class="st7" width="13.1" height="13.1"/>
			<rect x="194.8" y="195.6" class="st7" width="13.1" height="13.1"/>
			<rect x="181.6" y="195.6" class="st8" width="13.1" height="13.1"/>
			<rect x="221" y="208.7" class="st7" width="13.1" height="13.1"/>
			<rect x="207.9" y="208.7" class="st7" width="13.1" height="13.1"/>
			<rect x="194.8" y="208.7" class="st8" width="13.1" height="13.1"/>
			<rect x="181.6" y="208.7" class="st8" width="13.1" height="13.1"/>
			<rect x="234.2" y="221.8" class="st7" width="13.1" height="13.1"/>
			<rect x="221" y="221.8" class="st7" width="13.1" height="13.1"/>
			<rect x="207.9" y="221.8" class="st8" width="13.1" height="13.1"/>
			<rect x="194.8" y="221.8" class="st8" width="13.1" height="13.1"/>
			<rect x="181.6" y="221.8" class="st8" width="13.1" height="13.1"/>
			<rect x="207.9" y="235" class="st9" width="13.1" height="13.1"/>
			<rect x="194.8" y="235" class="st9" width="13.1" height="13.1"/>
			<rect x="221" y="248.1" class="st4" width="13.1" height="13.1"/>
			<rect x="207.9" y="248.1" class="st9" width="13.1" height="13.1"/>
			<rect x="221" y="261.2" class="st5" width="13.1" height="13.1"/>
			<rect x="221" y="274.4" class="st11" width="13.1" height="13.1"/>
			<rect x="168.5" y="103.6" class="st5" width="13.1" height="13.1"/>
			<rect x="155.4" y="103.6" class="st5" width="13.1" height="13.1"/>
			<rect x="142.2" y="103.6" class="st5" width="13.1" height="13.1"/>
			<rect x="129.1" y="103.6" class="st5" width="13.1" height="13.1"/>
			<rect x="116" y="103.6" class="st1" width="13.1" height="13.1"/>
			<rect x="168.5" y="116.8" class="st5" width="13.1" height="13.1"/>
			<rect x="155.4" y="116.8" class="st5" width="13.1" height="13.1"/>
			<rect x="142.2" y="116.8" class="st5" width="13.1" height="13.1"/>
			<rect x="129.1" y="116.8" class="st5" width="13.1" height="13.1"/>
			<rect x="168.5" y="129.9" class="st4" width="13.1" height="13.1"/>
			<rect x="155.4" y="129.9" class="st4" width="13.1" height="13.1"/>
			<rect x="142.2" y="129.9" class="st4" width="13.1" height="13.1"/>
			<rect x="129.1" y="129.9" class="st8" width="13.1" height="13.1"/>
			<rect x="168.5" y="143" class="st8" width="13.1" height="13.1"/>
			<rect x="155.4" y="143" class="st5" width="13.1" height="13.1"/>
			<rect x="142.2" y="143" class="st8" width="13.1" height="13.1"/>
			<rect x="129.1" y="143" class="st8" width="13.1" height="13.1"/>
			<rect x="168.5" y="156.2" class="st8" width="13.1" height="13.1"/>
			<rect x="155.4" y="156.2" class="st5" width="13.1" height="13.1"/>
			<rect x="142.2" y="156.2" class="st8" width="13.1" height="13.1"/>
			<rect x="129.1" y="156.2" class="st8" width="13.1" height="13.1"/>
			<rect x="116" y="156.2" class="st4" width="13.1" height="13.1"/>
			<rect x="168.5" y="169.3" class="st8" width="13.1" height="13.1"/>
			<rect x="155.4" y="169.3" class="st8" width="13.1" height="13.1"/>
			<rect x="142.2" y="169.3" class="st8" width="13.1" height="13.1"/>
			<rect x="116" y="169.3" class="st4" width="13.1" height="13.1"/>
			<rect x="168.5" y="182.4" class="st10" width="13.1" height="13.1"/>
			<rect x="155.4" y="182.4" class="st10" width="13.1" height="13.1"/>
			<rect x="142.2" y="182.4" class="st10" width="13.1" height="13.1"/>
			<rect x="102.8" y="182.4" class="st5" width="13.1" height="13.1"/>
			<rect x="168.5" y="195.6" class="st8" width="13.1" height="13.1"/>
			<rect x="155.4" y="195.6" class="st7" width="13.1" height="13.1"/>
			<rect x="142.2" y="195.6" class="st8" width="13.1" height="13.1"/>
			<rect x="168.5" y="208.7" class="st8" width="13.1" height="13.1"/>
			<rect x="155.4" y="208.7" class="st8" width="13.1" height="13.1"/>
			<rect x="142.2" y="208.7" class="st8" width="13.1" height="13.1"/>
			<rect x="89.7" y="208.7" class="st11" width="13.1" height="13.1"/>
			<rect x="50.3" y="221.8" class="st11" width="13.1" height="13.1"/>
			<rect x="168.5" y="221.8" class="st8" width="13.1" height="13.1"/>
			<rect x="155.4" y="221.8" class="st8" width="13.1" height="13.1"/>
			<rect x="142.2" y="221.8" class="st8" width="13.1" height="13.1"/>
			<rect x="129.1" y="221.8" class="st8" width="13.1" height="13.1"/>
			<rect x="89.7" y="221.8" class="st11" width="13.1" height="13.1"/>
			<rect x="102.8" y="208.7" class="st11" width="13.1" height="13.1"/>
			<rect x="116" y="195.6" class="st11" width="13.1" height="13.1"/>
			<rect x="129.1" y="208.7" class="st11" width="13.1" height="13.1"/>
			<rect x="76.6" y="221.8" class="st11" width="13.1" height="13.1"/>
			<rect x="63.4" y="221.8" class="st11" width="13.1" height="13.1"/>
			<rect x="155.4" y="235" class="st9" width="13.1" height="13.1"/>
			<rect x="142.2" y="235" class="st9" width="13.1" height="13.1"/>
			<rect x="89.7" y="235" class="st11" width="13.1" height="13.1"/>
			<rect x="76.6" y="235" class="st12" width="13.1" height="13.1"/>
			<rect x="63.4" y="235" class="st2" width="13.1" height="13.1"/>
			<rect x="63.5" y="208.7" class="st2" width="13.1" height="13.1"/>
			<rect x="63.5" y="195.6" class="st2" width="13.1" height="13.1"/>
			<rect x="76.6" y="182.4" class="st2" width="13.1" height="13.1"/>
			<rect x="76.6" y="169.3" class="st2" width="13.1" height="13.1"/>
			<rect x="89.7" y="156.2" class="st2" width="13.1" height="13.1"/>
			<rect x="50.3" y="182.4" class="st2" width="13.1" height="13.1"/>
			<rect x="37.1" y="208.7" class="st2" width="13.1" height="13.1"/>
			<rect x="24" y="195.6" class="st2" width="13.1" height="13.1"/>
			<rect x="10.9" y="208.7" class="st2" width="13.1" height="13.1"/>
			<rect x="155.4" y="248.1" class="st4" width="13.1" height="13.1"/>
			<rect x="102.8" y="248.1" class="st11" width="13.1" height="13.1"/>
			<rect x="89.7" y="248.1" class="st13" width="13.1" height="13.1"/>
			<rect x="76.6" y="248.1" class="st13" width="13.1" height="13.1"/>
			<rect x="63.4" y="248.1" class="st13" width="13.1" height="13.1"/>
			<rect x="155.4" y="261.2" class="st5" width="13.1" height="13.1"/>
			<rect x="89.7" y="261.2" class="st13" width="13.1" height="13.1"/>
			<rect x="76.6" y="261.2" class="st13" width="13.1" height="13.1"/>
			<rect x="63.4" y="261.2" class="st13" width="13.1" height="13.1"/>
			<rect x="155.4" y="274.4" class="st11" width="13.1" height="13.1"/>
			<rect x="76.6" y="274.4" class="st13" width="13.1" height="13.1"/>
		</g>
		<rect x="89.7" y="230.2" class="st9" width="4.7" height="4.7"/>
		<rect x="71.9" y="230.2" class="st9" width="4.7" height="4.7"/>
		<rect x="81.4" y="233" class="st14" width="3.4" height="2"/>
		<rect x="63.4" y="245.7" class="st10" width="39.4" height="2.4"/>
	</g>
</g>
<g id="DESIGNED_BY_FREEPIK">
</g>
<g id="DESIGNED_BY_FREEPIK_1_">
</g>
</svg>
