<?xml version="1.0" encoding="utf-8"?>
<!-- Generator: Adobe Illustrator 24.2.1, SVG Export Plug-In . SVG Version: 6.00 Build 0)  -->
<svg version="1.1" id="레이어_1" xmlns="http://www.w3.org/2000/svg" xmlns:xlink="http://www.w3.org/1999/xlink" x="0px"
	 y="0px" viewBox="0 0 297.587 299.187" enable-background="new 0 0 297.587 299.187" xml:space="preserve">
<g>
	<polygon fill="none" stroke="#000000" stroke-width="22.6772" stroke-miterlimit="10" points="260.438,169.295 260.438,156.161 
		260.438,143.027 247.303,143.027 247.303,129.893 234.167,129.893 221.035,129.893 221.034,129.893 207.9,129.893 207.9,116.758 
		221.034,116.758 221.035,116.758 234.167,116.758 234.167,103.624 234.167,103.623 234.167,90.489 234.167,77.354 234.167,64.221 
		234.167,51.086 234.167,37.949 221.035,37.949 221.035,24.817 207.9,24.817 207.9,11.682 194.766,11.682 181.63,11.682 
		168.495,11.682 155.36,11.682 142.227,11.682 142.227,24.817 129.091,24.817 129.091,37.949 115.958,37.949 115.958,51.086 
		115.958,64.221 115.958,77.354 115.958,90.489 115.958,103.623 115.958,103.624 115.958,116.758 129.091,116.758 129.091,129.893 
		129.091,143.027 129.091,156.161 115.958,156.161 115.958,169.295 115.958,169.296 115.958,182.428 129.091,182.428 
		129.091,169.296 142.227,169.296 142.227,182.428 142.227,195.565 142.227,208.698 129.093,208.698 129.093,195.564 
		115.958,195.564 115.958,182.428 102.823,182.428 102.823,195.565 115.956,195.565 115.956,208.698 102.822,208.698 
		102.822,208.699 89.686,208.699 89.686,221.832 76.618,221.832 76.618,208.699 76.618,208.698 76.618,195.564 89.687,195.564 
		89.687,182.429 89.687,169.295 102.822,169.295 102.822,156.16 89.687,156.16 89.687,169.294 76.552,169.294 76.552,182.429 
		76.552,195.564 63.483,195.564 63.483,208.698 63.483,208.699 63.483,221.832 63.419,221.832 50.284,221.832 50.284,208.698 
		37.15,208.698 37.15,195.564 24.015,195.564 24.015,208.698 10.88,208.698 10.88,221.833 24.015,221.833 24.015,208.699 
		37.149,208.699 37.149,221.833 50.284,221.833 50.284,234.966 63.419,234.966 63.419,234.967 76.553,234.967 76.554,234.967 
		81.439,234.967 81.439,234.967 76.554,234.967 76.553,234.967 63.419,234.967 63.419,248.102 63.419,261.237 63.419,274.372 
		76.553,274.372 76.553,287.505 89.686,287.505 89.686,274.372 102.823,274.372 102.823,261.237 115.958,261.237 115.958,248.102 
		102.823,248.102 102.823,248.101 102.823,245.657 102.823,234.967 89.686,234.967 84.844,234.967 84.844,234.967 89.686,234.967 
		102.823,234.967 102.823,221.833 115.959,221.833 115.959,208.699 129.091,208.699 129.091,221.832 129.091,221.833 
		129.091,234.967 142.227,234.967 142.228,234.967 155.36,234.967 168.495,234.967 181.63,234.967 194.766,234.967 207.9,234.967 
		221.034,234.967 221.035,234.967 234.167,234.967 247.303,234.967 247.303,221.832 234.167,221.832 234.167,208.699 
		234.167,195.565 221.035,195.565 221.035,182.428 234.167,182.428 234.167,169.296 234.167,169.295 234.167,156.161 
		247.303,156.161 247.303,169.296 260.438,169.296 260.438,182.428 273.571,182.428 273.571,169.295 	"/>
	
		<rect x="273.571" y="182.428" fill="none" stroke="#000000" stroke-width="22.6772" stroke-miterlimit="10" width="13.137" height="13.137"/>
	<polygon fill="none" stroke="#000000" stroke-width="22.6772" stroke-miterlimit="10" points="221.035,234.967 207.9,234.967 
		194.766,234.967 194.766,248.102 207.9,248.102 207.9,261.237 221.034,261.237 221.034,274.371 221.034,274.372 221.034,287.505 
		234.167,287.505 234.167,274.372 234.167,274.371 234.167,261.237 234.167,248.102 221.035,248.102 	"/>
	<polygon fill="none" stroke="#000000" stroke-width="22.6772" stroke-miterlimit="10" points="142.227,234.967 142.227,248.102 
		155.36,248.102 155.36,261.237 155.36,274.371 155.36,274.372 155.36,287.505 168.495,287.505 168.495,274.372 168.495,274.371 
		168.495,261.237 168.495,248.102 168.495,234.967 155.36,234.967 	"/>
	
		<rect x="50.316" y="182.397" fill="none" stroke="#000000" stroke-width="22.6772" stroke-miterlimit="10" width="13.135" height="13.135"/>
</g>
<g id="BACKGROUND">
</g>
<g id="OBJECTS">
	<g>
		<g>
			<rect x="194.766" y="11.682" fill="#692800" width="13.134" height="13.135"/>
			<rect x="181.63" y="11.682" fill="#692800" width="13.136" height="13.135"/>
			<rect x="207.9" y="24.817" fill="#A2A625" width="13.135" height="13.133"/>
			<rect x="194.766" y="24.817" fill="#753F19" width="13.134" height="13.133"/>
			<rect x="181.63" y="24.817" fill="#753F19" width="13.136" height="13.133"/>
			<rect x="221.034" y="37.949" fill="#692800" width="13.133" height="13.137"/>
			<rect x="207.9" y="37.949" fill="#753F19" width="13.135" height="13.137"/>
			<rect x="194.766" y="37.949" fill="#753F19" width="13.134" height="13.137"/>
			<rect x="181.63" y="37.949" fill="#753F19" width="13.136" height="13.137"/>
			<rect x="221.034" y="51.086" fill="#692800" width="13.133" height="13.135"/>
			<rect x="207.9" y="51.086" fill="#753F19" width="13.135" height="13.135"/>
			<rect x="194.766" y="51.086" fill="#F9CB9A" width="13.134" height="13.135"/>
			<rect x="181.63" y="51.086" fill="#753F19" width="13.136" height="13.135"/>
			<rect x="221.034" y="64.221" fill="#753F19" width="13.133" height="13.133"/>
			<rect x="207.9" y="64.221" fill="#692800" width="13.135" height="13.133"/>
			<rect x="194.766" y="64.221" fill="#FCE3C9" width="13.134" height="13.133"/>
			<rect x="181.63" y="64.221" fill="#692800" width="13.136" height="13.133"/>
			<rect x="221.034" y="77.354" fill="#692800" width="13.133" height="13.135"/>
			<rect x="207.9" y="77.354" fill="#692800" width="13.135" height="13.135"/>
			<rect x="194.766" y="77.354" fill="#692800" width="13.134" height="13.135"/>
			<rect x="181.63" y="77.354" fill="#FCE3C9" width="13.136" height="13.135"/>
			<rect x="221.034" y="90.489" fill="#692800" width="13.133" height="13.135"/>
			<rect x="207.9" y="90.489" fill="#692800" width="13.135" height="13.135"/>
			<rect x="194.766" y="90.489" fill="#F9CB9A" width="13.134" height="13.135"/>
			<rect x="181.63" y="90.489" fill="#FCE3C9" width="13.136" height="13.135"/>
			<rect x="168.495" y="11.682" fill="#753F19" width="13.135" height="13.135"/>
			<rect x="155.36" y="11.682" fill="#753F19" width="13.135" height="13.135"/>
			<rect x="142.227" y="11.682" fill="#753F19" width="13.133" height="13.135"/>
			<rect x="168.495" y="24.817" fill="#753F19" width="13.135" height="13.133"/>
			<rect x="155.36" y="24.817" fill="#753F19" width="13.135" height="13.133"/>
			<rect x="142.227" y="24.817" fill="#753F19" width="13.133" height="13.133"/>
			<rect x="129.091" y="24.817" fill="#753F19" width="13.137" height="13.133"/>
			<rect x="168.495" y="37.949" fill="#753F19" width="13.135" height="13.137"/>
			<rect x="155.36" y="37.949" fill="#753F19" width="13.135" height="13.137"/>
			<rect x="142.227" y="37.949" fill="#753F19" width="13.133" height="13.137"/>
			<rect x="129.091" y="37.949" fill="#753F19" width="13.137" height="13.137"/>
			<rect x="115.958" y="37.949" fill="#692800" width="13.133" height="13.137"/>
			<rect x="168.495" y="51.086" fill="#F9CB9A" width="13.135" height="13.135"/>
			<rect x="155.36" y="51.086" fill="#753F19" width="13.135" height="13.135"/>
			<rect x="142.227" y="51.086" fill="#F9CB9A" width="13.133" height="13.135"/>
			<rect x="129.091" y="51.086" fill="#753F19" width="13.137" height="13.135"/>
			<rect x="115.958" y="51.086" fill="#692800" width="13.133" height="13.135"/>
			<rect x="168.495" y="64.221" fill="#FCE3C9" width="13.135" height="13.133"/>
			<rect x="155.36" y="64.221" fill="#753F19" width="13.135" height="13.133"/>
			<rect x="142.227" y="64.221" fill="#FCE3C9" width="13.133" height="13.133"/>
			<rect x="129.091" y="64.221" fill="#FCE3C9" width="13.137" height="13.133"/>
			<rect x="115.958" y="64.221" fill="#753F19" width="13.133" height="13.133"/>
			<rect x="168.495" y="77.354" fill="#FCE3C9" width="13.135" height="13.135"/>
			<rect x="155.36" y="77.354" fill="#FCE3C9" width="13.135" height="13.135"/>
			<rect x="142.227" y="77.354" fill="#FCE3C9" width="13.133" height="13.135"/>
			<rect x="129.091" y="77.354" fill="#FCE3C9" width="13.137" height="13.135"/>
			<rect x="115.958" y="77.354" fill="#753F19" width="13.133" height="13.135"/>
			<rect x="168.495" y="90.489" fill="#0B0A13" width="13.135" height="13.135"/>
			<rect x="155.36" y="90.489" fill="#FCE3C9" width="13.135" height="13.135"/>
			<rect x="142.227" y="90.489" fill="#FCE3C9" width="13.133" height="13.135"/>
			<rect x="129.091" y="90.489" fill="#0B0A13" width="13.137" height="13.135"/>
			<rect x="115.958" y="90.489" fill="#753F19" width="13.133" height="13.135"/>
			<rect x="221.034" y="103.623" fill="#692800" width="13.133" height="13.135"/>
			<rect x="207.9" y="103.623" fill="#692800" width="13.135" height="13.135"/>
			<rect x="194.766" y="103.623" fill="#F9CB9A" width="13.134" height="13.135"/>
			<rect x="181.63" y="103.623" fill="#FCE3C9" width="13.136" height="13.135"/>
			<rect x="194.766" y="116.758" fill="#F9CB9A" width="13.134" height="13.135"/>
			<rect x="181.63" y="116.758" fill="#FCE3C9" width="13.136" height="13.135"/>
			<rect x="234.167" y="129.893" fill="#F9CB9A" width="13.136" height="13.134"/>
			<rect x="221.034" y="129.893" fill="#6D7019" width="13.133" height="13.134"/>
			<rect x="207.9" y="129.893" fill="#6D7019" width="13.135" height="13.134"/>
			<rect x="194.766" y="129.893" fill="#6D7019" width="13.134" height="13.134"/>
			<rect x="181.63" y="129.893" fill="#818C22" width="13.136" height="13.134"/>
			<rect x="247.303" y="143.027" fill="#FCE3C9" width="13.135" height="13.134"/>
			<rect x="234.167" y="143.027" fill="#F9CB9A" width="13.136" height="13.134"/>
			<rect x="221.034" y="143.027" fill="#6D7019" width="13.133" height="13.134"/>
			<rect x="207.9" y="143.027" fill="#818C22" width="13.135" height="13.134"/>
			<rect x="194.766" y="143.027" fill="#818C22" width="13.134" height="13.134"/>
			<rect x="181.63" y="143.027" fill="#818C22" width="13.136" height="13.134"/>
			<rect x="247.303" y="156.161" fill="#FCE3C9" width="13.135" height="13.135"/>
			<rect x="221.034" y="156.161" fill="#6D7019" width="13.133" height="13.135"/>
			<rect x="207.9" y="156.161" fill="#6D7019" width="13.135" height="13.135"/>
			<rect x="194.766" y="156.161" fill="#818C22" width="13.134" height="13.135"/>
			<rect x="181.63" y="156.161" fill="#818C22" width="13.136" height="13.135"/>
			<rect x="260.438" y="169.295" fill="#FCE3C9" width="13.133" height="13.133"/>
			<rect x="221.034" y="169.295" fill="#1A1921" width="13.133" height="13.133"/>
			<rect x="207.9" y="169.295" fill="#1A1921" width="13.135" height="13.133"/>
			<rect x="194.766" y="169.295" fill="#1A1921" width="13.134" height="13.133"/>
			<rect x="181.63" y="169.295" fill="#818C22" width="13.136" height="13.133"/>
			<rect x="273.571" y="182.428" fill="#FCE3C9" width="13.137" height="13.137"/>
			<rect x="207.9" y="182.428" fill="#6D7019" width="13.135" height="13.137"/>
			<rect x="194.766" y="182.428" fill="#818C22" width="13.134" height="13.137"/>
			<rect x="181.63" y="182.428" fill="#27262E" width="13.136" height="13.137"/>
			<rect x="221.034" y="195.565" fill="#6D7019" width="13.133" height="13.134"/>
			<rect x="207.9" y="195.565" fill="#6D7019" width="13.135" height="13.134"/>
			<rect x="194.766" y="195.565" fill="#6D7019" width="13.134" height="13.134"/>
			<rect x="181.63" y="195.565" fill="#818C22" width="13.136" height="13.134"/>
			<rect x="221.034" y="208.699" fill="#6D7019" width="13.133" height="13.134"/>
			<rect x="207.9" y="208.699" fill="#6D7019" width="13.135" height="13.134"/>
			<rect x="194.766" y="208.699" fill="#818C22" width="13.134" height="13.134"/>
			<rect x="181.63" y="208.699" fill="#818C22" width="13.136" height="13.134"/>
			<rect x="234.167" y="221.832" fill="#6D7019" width="13.136" height="13.135"/>
			<rect x="221.034" y="221.832" fill="#6D7019" width="13.133" height="13.135"/>
			<rect x="207.9" y="221.832" fill="#818C22" width="13.135" height="13.135"/>
			<rect x="194.766" y="221.832" fill="#818C22" width="13.134" height="13.135"/>
			<rect x="181.63" y="221.832" fill="#818C22" width="13.136" height="13.135"/>
			<rect x="207.9" y="234.967" fill="#1A1921" width="13.135" height="13.135"/>
			<rect x="194.766" y="234.967" fill="#1A1921" width="13.134" height="13.135"/>
			<rect x="221.034" y="248.102" fill="#F9CB9A" width="13.133" height="13.135"/>
			<rect x="207.9" y="248.102" fill="#1A1921" width="13.135" height="13.135"/>
			<rect x="221.034" y="261.237" fill="#FCE3C9" width="13.133" height="13.135"/>
			<rect x="221.034" y="274.371" fill="#B1C02E" width="13.133" height="13.134"/>
			<rect x="168.495" y="103.623" fill="#FCE3C9" width="13.135" height="13.135"/>
			<rect x="155.36" y="103.623" fill="#FCE3C9" width="13.135" height="13.135"/>
			<rect x="142.227" y="103.623" fill="#FCE3C9" width="13.133" height="13.135"/>
			<rect x="129.091" y="103.623" fill="#FCE3C9" width="13.137" height="13.135"/>
			<rect x="115.958" y="103.623" fill="#692800" width="13.133" height="13.135"/>
			<rect x="168.495" y="116.758" fill="#FCE3C9" width="13.135" height="13.135"/>
			<rect x="155.36" y="116.758" fill="#FCE3C9" width="13.135" height="13.135"/>
			<rect x="142.227" y="116.758" fill="#FCE3C9" width="13.133" height="13.135"/>
			<rect x="129.091" y="116.758" fill="#FCE3C9" width="13.137" height="13.135"/>
			<rect x="168.495" y="129.893" fill="#F9CB9A" width="13.135" height="13.134"/>
			<rect x="155.36" y="129.893" fill="#F9CB9A" width="13.135" height="13.134"/>
			<rect x="142.227" y="129.893" fill="#F9CB9A" width="13.133" height="13.134"/>
			<rect x="129.091" y="129.893" fill="#818C22" width="13.137" height="13.134"/>
			<rect x="168.495" y="143.027" fill="#818C22" width="13.135" height="13.134"/>
			<rect x="155.36" y="143.027" fill="#FCE3C9" width="13.135" height="13.134"/>
			<rect x="142.227" y="143.027" fill="#818C22" width="13.133" height="13.134"/>
			<rect x="129.091" y="143.027" fill="#818C22" width="13.137" height="13.134"/>
			<rect x="168.495" y="156.161" fill="#818C22" width="13.135" height="13.135"/>
			<rect x="155.36" y="156.161" fill="#FCE3C9" width="13.135" height="13.135"/>
			<rect x="142.227" y="156.161" fill="#818C22" width="13.133" height="13.135"/>
			<rect x="129.091" y="156.161" fill="#818C22" width="13.137" height="13.135"/>
			<rect x="115.958" y="156.161" fill="#F9CB9A" width="13.133" height="13.135"/>
			<rect x="168.495" y="169.295" fill="#818C22" width="13.135" height="13.133"/>
			<rect x="155.36" y="169.295" fill="#818C22" width="13.135" height="13.133"/>
			<rect x="142.227" y="169.295" fill="#818C22" width="13.133" height="13.133"/>
			<rect x="115.958" y="169.295" fill="#F9CB9A" width="13.133" height="13.133"/>
			<rect x="168.495" y="182.428" fill="#27262E" width="13.135" height="13.137"/>
			<rect x="155.36" y="182.428" fill="#27262E" width="13.135" height="13.137"/>
			<rect x="142.227" y="182.428" fill="#27262E" width="13.133" height="13.137"/>
			<rect x="102.823" y="182.428" fill="#FCE3C9" width="13.135" height="13.137"/>
			<rect x="168.495" y="195.565" fill="#818C22" width="13.135" height="13.134"/>
			<rect x="155.36" y="195.565" fill="#6D7019" width="13.135" height="13.134"/>
			<rect x="142.227" y="195.565" fill="#818C22" width="13.133" height="13.134"/>
			<rect x="168.495" y="208.699" fill="#818C22" width="13.135" height="13.134"/>
			<rect x="155.36" y="208.699" fill="#818C22" width="13.135" height="13.134"/>
			<rect x="142.227" y="208.699" fill="#818C22" width="13.133" height="13.134"/>
			<rect x="89.686" y="208.699" fill="#B1C02E" width="13.137" height="13.134"/>
			<rect x="50.284" y="221.832" fill="#B1C02E" width="13.135" height="13.134"/>
			<rect x="168.495" y="221.832" fill="#818C22" width="13.135" height="13.135"/>
			<rect x="155.36" y="221.832" fill="#818C22" width="13.135" height="13.135"/>
			<rect x="142.227" y="221.832" fill="#818C22" width="13.133" height="13.135"/>
			<rect x="129.091" y="221.832" fill="#818C22" width="13.137" height="13.135"/>
			<rect x="89.686" y="221.832" fill="#B1C02E" width="13.137" height="13.135"/>
			<rect x="102.822" y="208.698" fill="#B1C02E" width="13.137" height="13.135"/>
			<rect x="115.956" y="195.564" fill="#B1C02E" width="13.137" height="13.135"/>
			<rect x="129.091" y="208.698" fill="#B1C02E" width="13.137" height="13.135"/>
			<rect x="76.553" y="221.832" fill="#B1C02E" width="13.133" height="13.135"/>
			<rect x="63.419" y="221.832" fill="#B1C02E" width="13.135" height="13.135"/>
			<rect x="155.36" y="234.967" fill="#1A1921" width="13.135" height="13.135"/>
			<rect x="142.227" y="234.967" fill="#1A1921" width="13.133" height="13.135"/>
			<rect x="89.686" y="234.967" fill="#B1C02E" width="13.137" height="13.135"/>
			<rect x="76.553" y="234.967" fill="#D2DDC2" width="13.133" height="13.135"/>
			<rect x="63.419" y="234.967" fill="#A2A625" width="13.135" height="13.135"/>
			<rect x="63.483" y="208.698" fill="#A2A625" width="13.135" height="13.135"/>
			<rect x="63.483" y="195.564" fill="#A2A625" width="13.135" height="13.135"/>
			<rect x="76.552" y="182.429" fill="#A2A625" width="13.135" height="13.135"/>
			<rect x="76.552" y="169.294" fill="#A2A625" width="13.135" height="13.135"/>
			<rect x="89.687" y="156.16" fill="#A2A625" width="13.135" height="13.135"/>
			<rect x="50.316" y="182.397" fill="#A2A625" width="13.135" height="13.135"/>
			<rect x="37.149" y="208.698" fill="#A2A625" width="13.135" height="13.135"/>
			<rect x="24.015" y="195.564" fill="#A2A625" width="13.135" height="13.135"/>
			<rect x="10.88" y="208.698" fill="#A2A625" width="13.135" height="13.135"/>
			<rect x="155.36" y="248.102" fill="#F9CB9A" width="13.135" height="13.135"/>
			<rect x="102.823" y="248.102" fill="#B1C02E" width="13.135" height="13.135"/>
			<rect x="89.686" y="248.102" fill="#FFFFFF" width="13.137" height="13.135"/>
			<rect x="76.553" y="248.102" fill="#FFFFFF" width="13.133" height="13.135"/>
			<rect x="63.419" y="248.102" fill="#FFFFFF" width="13.135" height="13.135"/>
			<rect x="155.36" y="261.237" fill="#FCE3C9" width="13.135" height="13.135"/>
			<rect x="89.686" y="261.237" fill="#FFFFFF" width="13.137" height="13.135"/>
			<rect x="76.553" y="261.237" fill="#FFFFFF" width="13.133" height="13.135"/>
			<rect x="63.419" y="261.237" fill="#FFFFFF" width="13.135" height="13.135"/>
			<rect x="155.36" y="274.371" fill="#B1C02E" width="13.135" height="13.134"/>
			<rect x="76.553" y="274.371" fill="#FFFFFF" width="13.133" height="13.134"/>
		</g>
		<rect x="89.686" y="230.235" fill="#1A1921" width="4.68" height="4.68"/>
		<rect x="71.874" y="230.235" fill="#1A1921" width="4.68" height="4.68"/>
		<rect x="81.439" y="232.982" fill="#FF6200" width="3.405" height="1.985"/>
		<rect x="63.42" y="245.657" fill="#27262E" width="39.403" height="2.444"/>
	</g>
</g>
<g id="DESIGNED_BY_FREEPIK">
</g>
<g id="DESIGNED_BY_FREEPIK_1_">
</g>
</svg>
